<svg version="1.2" baseProfile="tiny-ps" xmlns="http://www.w3.org/2000/svg" viewBox="0 0 1500 1080" width="600" height="432">
	<title>customize-data-ai</title>
	<defs>
		<linearGradient id="grd1" gradientUnits="userSpaceOnUse"  x1="141.25" y1="159.301" x2="1336.539" y2="159.301">
			<stop offset="0" stop-color="#d0f2fc"  />
			<stop offset="1" stop-color="#c1eefc"  />
		</linearGradient>
		<linearGradient id="grd2" gradientUnits="userSpaceOnUse"  x1="1256.908" y1="311.746" x2="1282.331" y2="526.482">
			<stop offset="0" stop-color="#5dd5f7"  />
			<stop offset="1" stop-color="#429ad4"  />
		</linearGradient>
		<linearGradient id="grd3" gradientUnits="userSpaceOnUse"  x1="1235.04" y1="514.182" x2="1215.102" y2="345.781">
			<stop offset="0" stop-color="#d0f2fc"  />
			<stop offset="1" stop-color="#c1eefc"  />
		</linearGradient>
		<linearGradient id="grd4" gradientUnits="userSpaceOnUse"  x1="1132.532" y1="240.302" x2="1057.604" y2="332.675">
			<stop offset="0" stop-color="#d0f2fc"  />
			<stop offset="1" stop-color="#c1eefc"  />
		</linearGradient>
		<linearGradient id="grd5" gradientUnits="userSpaceOnUse"  x1="1113.86" y1="260.503" x2="1063.076" y2="323.11">
			<stop offset="0" stop-color="#d0f2fc"  />
			<stop offset="1" stop-color="#c1eefc"  />
		</linearGradient>
		<linearGradient id="grd6" gradientUnits="userSpaceOnUse"  x1="1111.508" y1="270.564" x2="1060.504" y2="333.443">
			<stop offset="0" stop-color="#d0f2fc"  />
			<stop offset="1" stop-color="#c1eefc"  />
		</linearGradient>
		<linearGradient id="grd7" gradientUnits="userSpaceOnUse"  x1="1115.322" y1="287.89" x2="1064.338" y2="350.744">
			<stop offset="0" stop-color="#d0f2fc"  />
			<stop offset="1" stop-color="#c1eefc"  />
		</linearGradient>
		<linearGradient id="grd8" gradientUnits="userSpaceOnUse"  x1="1122.013" y1="305.985" x2="1071.599" y2="368.136">
			<stop offset="0" stop-color="#d0f2fc"  />
			<stop offset="1" stop-color="#c1eefc"  />
		</linearGradient>
		<linearGradient id="grd9" gradientUnits="userSpaceOnUse"  x1="1129.815" y1="323.514" x2="1079.038" y2="386.112">
			<stop offset="0" stop-color="#d0f2fc"  />
			<stop offset="1" stop-color="#c1eefc"  />
		</linearGradient>
		<linearGradient id="grd10" gradientUnits="userSpaceOnUse"  x1="1140.208" y1="343.573" x2="1089.431" y2="406.171">
			<stop offset="0" stop-color="#d0f2fc"  />
			<stop offset="1" stop-color="#c1eefc"  />
		</linearGradient>
		<linearGradient id="grd11" gradientUnits="userSpaceOnUse"  x1="1102.018" y1="228.322" x2="1042.195" y2="302.072">
			<stop offset="0" stop-color="#d0f2fc"  />
			<stop offset="1" stop-color="#c1eefc"  />
		</linearGradient>
		<linearGradient id="grd12" gradientUnits="userSpaceOnUse"  x1="1084.933" y1="226.035" x2="1034.15" y2="288.64">
			<stop offset="0" stop-color="#d0f2fc"  />
			<stop offset="1" stop-color="#c1eefc"  />
		</linearGradient>
		<linearGradient id="grd13" gradientUnits="userSpaceOnUse"  x1="1074.7" y1="230.391" x2="1021.514" y2="295.959">
			<stop offset="0" stop-color="#d0f2fc"  />
			<stop offset="1" stop-color="#c1eefc"  />
		</linearGradient>
		<linearGradient id="grd14" gradientUnits="userSpaceOnUse"  x1="1080.223" y1="236.341" x2="1017.624" y2="313.514">
			<stop offset="0" stop-color="#d0f2fc"  />
			<stop offset="1" stop-color="#c1eefc"  />
		</linearGradient>
		<linearGradient id="grd15" gradientUnits="userSpaceOnUse"  x1="1099.747" y1="246.975" x2="1018.736" y2="346.846">
			<stop offset="0" stop-color="#d0f2fc"  />
			<stop offset="1" stop-color="#c1eefc"  />
		</linearGradient>
		<linearGradient id="grd16" gradientUnits="userSpaceOnUse"  x1="1105.451" y1="259.749" x2="1024.44" y2="359.62">
			<stop offset="0" stop-color="#d0f2fc"  />
			<stop offset="1" stop-color="#c1eefc"  />
		</linearGradient>
		<linearGradient id="grd17" gradientUnits="userSpaceOnUse"  x1="1134.749" y1="218.418" x2="1034.659" y2="341.809">
			<stop offset="0" stop-color="#d0f2fc"  />
			<stop offset="1" stop-color="#c1eefc"  />
		</linearGradient>
		<linearGradient id="grd18" gradientUnits="userSpaceOnUse"  x1="359.081" y1="865.957" x2="359.081" y2="469.73">
			<stop offset="0" stop-color="#d0f2fc"  />
			<stop offset="1" stop-color="#c1eefc"  />
		</linearGradient>
		<linearGradient id="grd19" gradientUnits="userSpaceOnUse"  x1="593.525" y1="865.957" x2="593.525" y2="469.73">
			<stop offset="0" stop-color="#d0f2fc"  />
			<stop offset="1" stop-color="#c1eefc"  />
		</linearGradient>
		<linearGradient id="grd20" gradientUnits="userSpaceOnUse"  x1="223.907" y1="947.431" x2="1240.9" y2="947.431">
			<stop offset="0" stop-color="#5dd5f7"  />
			<stop offset="1" stop-color="#429ad4"  />
		</linearGradient>
		<linearGradient id="grd21" gradientUnits="userSpaceOnUse"  x1="543.098" y1="321.658" x2="921.981" y2="321.658">
			<stop offset="0" stop-color="#5dd5f7"  />
			<stop offset="1" stop-color="#429ad4"  />
		</linearGradient>
		<linearGradient id="grd22" gradientUnits="userSpaceOnUse"  x1="782.667" y1="613.1" x2="782.667" y2="764.419">
			<stop offset="0" stop-color="#5dd5f7"  />
			<stop offset="1" stop-color="#429ad4"  />
		</linearGradient>
		<linearGradient id="grd23" gradientUnits="userSpaceOnUse"  x1="632.723" y1="272.916" x2="705.681" y2="233.507">
			<stop offset="0" stop-color="#6b74bc"  />
			<stop offset="1" stop-color="#5b81c4"  />
		</linearGradient>
		<linearGradient id="grd24" gradientUnits="userSpaceOnUse"  x1="574.593" y1="244.175" x2="523.501" y2="155.615">
			<stop offset="0" stop-color="#5dd5f7"  />
			<stop offset="1" stop-color="#429ad4"  />
		</linearGradient>
		<linearGradient id="grd25" gradientUnits="userSpaceOnUse"  x1="569.765" y1="236.697" x2="558.865" y2="215.578">
			<stop offset="0" stop-color="#5dd5f7"  />
			<stop offset="1" stop-color="#429ad4"  />
		</linearGradient>
		<linearGradient id="grd26" gradientUnits="userSpaceOnUse"  x1="561.413" y1="215.963" x2="541.657" y2="180.539">
			<stop offset="0" stop-color="#5dd5f7"  />
			<stop offset="1" stop-color="#429ad4"  />
		</linearGradient>
		<linearGradient id="grd27" gradientUnits="userSpaceOnUse"  x1="823.998" y1="89.736" x2="909.681" y2="89.736">
			<stop offset="0" stop-color="#6b74bc"  />
			<stop offset="1" stop-color="#5b81c4"  />
		</linearGradient>
		<linearGradient id="grd28" gradientUnits="userSpaceOnUse"  x1="798.839" y1="201.542" x2="865.047" y2="223.462">
			<stop offset="0" stop-color="#5dd5f7"  />
			<stop offset="1" stop-color="#429ad4"  />
		</linearGradient>
		<linearGradient id="grd29" gradientUnits="userSpaceOnUse"  x1="686.089" y1="73.2" x2="756.3" y2="43.974">
			<stop offset="0" stop-color="#d0f2fc"  />
			<stop offset="1" stop-color="#c1eefc"  />
		</linearGradient>
		<linearGradient id="grd30" gradientUnits="userSpaceOnUse"  x1="309.227" y1="970.931" x2="359.38" y2="970.931">
			<stop offset="0" stop-color="#054ba7"  />
			<stop offset="1" stop-color="#0154ad"  />
		</linearGradient>
		<linearGradient id="grd31" gradientUnits="userSpaceOnUse"  x1="277.895" y1="975.321" x2="255.475" y2="975.321">
			<stop offset="0" stop-color="#054ba7"  />
			<stop offset="1" stop-color="#0154ad"  />
		</linearGradient>
		<linearGradient id="grd32" gradientUnits="userSpaceOnUse"  x1="251.784" y1="927.536" x2="251.784" y2="818.26">
			<stop offset="0" stop-color="#054ba7"  />
			<stop offset="1" stop-color="#0154ad"  />
		</linearGradient>
		<linearGradient id="grd33" gradientUnits="userSpaceOnUse"  x1="346.267" y1="637.902" x2="360.312" y2="653.581">
			<stop offset="0" stop-color="#6b74bc"  />
			<stop offset="1" stop-color="#5b81c4"  />
		</linearGradient>
		<linearGradient id="grd34" gradientUnits="userSpaceOnUse"  x1="251.507" y1="708.776" x2="251.507" y2="652.558">
			<stop offset="0" stop-color="#6b74bc"  />
			<stop offset="1" stop-color="#5b81c4"  />
		</linearGradient>
		<linearGradient id="grd35" gradientUnits="userSpaceOnUse"  x1="309.945" y1="572.516" x2="280.777" y2="572.516">
			<stop offset="0" stop-color="#054ba7"  />
			<stop offset="1" stop-color="#0154ad"  />
		</linearGradient>
		<linearGradient id="grd36" gradientUnits="userSpaceOnUse"  x1="236.394" y1="710.339" x2="236.394" y2="652.988">
			<stop offset="0" stop-color="#6b74bc"  />
			<stop offset="1" stop-color="#5b81c4"  />
		</linearGradient>
		<linearGradient id="grd37" gradientUnits="userSpaceOnUse"  x1="339.143" y1="629.18" x2="393.12" y2="629.18">
			<stop offset="0" stop-color="#054ba7"  />
			<stop offset="1" stop-color="#0154ad"  />
		</linearGradient>
		<linearGradient id="grd38" gradientUnits="userSpaceOnUse"  x1="787.563" y1="974.328" x2="819.608" y2="974.328">
			<stop offset="0" stop-color="#054ba7"  />
			<stop offset="1" stop-color="#0154ad"  />
		</linearGradient>
		<linearGradient id="grd39" gradientUnits="userSpaceOnUse"  x1="877.706" y1="1079.635" x2="971.726" y2="949.754">
			<stop offset="0" stop-color="#054ba7"  />
			<stop offset="1" stop-color="#0154ad"  />
		</linearGradient>
		<linearGradient id="grd40" gradientUnits="userSpaceOnUse"  x1="750.442" y1="967.595" x2="778.804" y2="967.595">
			<stop offset="0" stop-color="#054ba7"  />
			<stop offset="1" stop-color="#0154ad"  />
		</linearGradient>
		<linearGradient id="grd41" gradientUnits="userSpaceOnUse"  x1="815.249" y1="1042.414" x2="956.659" y2="974.28">
			<stop offset="0" stop-color="#054ba7"  />
			<stop offset="1" stop-color="#0154ad"  />
		</linearGradient>
		<linearGradient id="grd42" gradientUnits="userSpaceOnUse"  x1="909.644" y1="796.293" x2="940.624" y2="796.293">
			<stop offset="0" stop-color="#6b74bc"  />
			<stop offset="1" stop-color="#5b81c4"  />
		</linearGradient>
		<linearGradient id="grd43" gradientUnits="userSpaceOnUse"  x1="917.644" y1="791.472" x2="1005.241" y2="791.472">
			<stop offset="0" stop-color="#6b74bc"  />
			<stop offset="1" stop-color="#5b81c4"  />
		</linearGradient>
		<linearGradient id="grd44" gradientUnits="userSpaceOnUse"  x1="846.231" y1="867.447" x2="929.377" y2="867.447">
			<stop offset="0" stop-color="#5dd5f7"  />
			<stop offset="1" stop-color="#429ad4"  />
		</linearGradient>
		<linearGradient id="grd45" gradientUnits="userSpaceOnUse"  x1="995.566" y1="734.202" x2="933.225" y2="734.202">
			<stop offset="0" stop-color="#054ba7"  />
			<stop offset="1" stop-color="#0154ad"  />
		</linearGradient>
		<linearGradient id="grd46" gradientUnits="userSpaceOnUse"  x1="1301.206" y1="701.652" x2="1265.319" y2="710.615">
			<stop offset="0" stop-color="#5dd5f7"  />
			<stop offset="1" stop-color="#429ad4"  />
		</linearGradient>
		<linearGradient id="grd47" gradientUnits="userSpaceOnUse"  x1="1125.77" y1="635.221" x2="1252.885" y2="635.221">
			<stop offset="0" stop-color="#6b74bc"  />
			<stop offset="1" stop-color="#5b81c4"  />
		</linearGradient>
		<linearGradient id="grd48" gradientUnits="userSpaceOnUse"  x1="1371.971" y1="986.276" x2="1347.927" y2="989.74">
			<stop offset="0.088" stop-color="#1348a5"  />
			<stop offset="1" stop-color="#0057af"  />
		</linearGradient>
		<linearGradient id="grd49" gradientUnits="userSpaceOnUse"  x1="1358.64" y1="806.267" x2="1266.603" y2="806.267">
			<stop offset="0" stop-color="#0e3c8b"  />
			<stop offset="1" stop-color="#094698"  />
		</linearGradient>
		<linearGradient id="grd50" gradientUnits="userSpaceOnUse"  x1="1252.755" y1="1009.607" x2="1218.205" y2="1009.607">
			<stop offset="0.088" stop-color="#1348a5"  />
			<stop offset="1" stop-color="#0057af"  />
		</linearGradient>
		<linearGradient id="grd51" gradientUnits="userSpaceOnUse"  x1="1324.531" y1="805.093" x2="1232.572" y2="805.093">
			<stop offset="0" stop-color="#054ba7"  />
			<stop offset="1" stop-color="#0154ad"  />
		</linearGradient>
		<linearGradient id="grd52" gradientUnits="userSpaceOnUse"  x1="1262.719" y1="710.369" x2="1262.719" y2="796.003">
			<stop offset="0" stop-color="#6b74bc"  />
			<stop offset="1" stop-color="#5b81c4"  />
		</linearGradient>
		<linearGradient id="grd53" gradientUnits="userSpaceOnUse"  x1="1276.685" y1="707.938" x2="1254.281" y2="724.107">
			<stop offset="0" stop-color="#6b74bc"  />
			<stop offset="1" stop-color="#5b81c4"  />
		</linearGradient>
	</defs>
	<style>
		tspan { white-space:pre }
		.shp0 { fill: url(#grd1) } 
		.shp1 { fill: url(#grd2) } 
		.shp2 { mix-blend-mode: multiply;fill: url(#grd3) } 
		.shp3 { fill: url(#grd4) } 
		.shp4 { fill: url(#grd5) } 
		.shp5 { fill: url(#grd6) } 
		.shp6 { fill: url(#grd7) } 
		.shp7 { fill: url(#grd8) } 
		.shp8 { fill: url(#grd9) } 
		.shp9 { fill: url(#grd10) } 
		.shp10 { fill: url(#grd11) } 
		.shp11 { fill: url(#grd12) } 
		.shp12 { fill: url(#grd13) } 
		.shp13 { fill: url(#grd14) } 
		.shp14 { fill: url(#grd15) } 
		.shp15 { fill: url(#grd16) } 
		.shp16 { fill: url(#grd17) } 
		.shp17 { fill: #ffffff } 
		.shp18 { fill: #c0def9 } 
		.shp19 { fill: url(#grd18) } 
		.shp20 { fill: url(#grd19) } 
		.shp21 { fill: url(#grd20) } 
		.shp22 { fill: url(#grd21) } 
		.shp23 { fill: #152c77 } 
		.shp24 { fill: url(#grd22) } 
		.shp25 { fill: url(#grd23) } 
		.shp26 { fill: url(#grd24) } 
		.shp27 { fill: url(#grd25) } 
		.shp28 { fill: url(#grd26) } 
		.shp29 { fill: url(#grd27) } 
		.txt30 { font-size: 19px;fill: #ffffff;font-family: "Source Sans Roman" } 
		.shp31 { fill: url(#grd28) } 
		.shp32 { fill: url(#grd29) } 
		.shp33 { fill: #f3f9ff } 
		.shp34 { fill: none;stroke: #ffffff;stroke-width: 3.078 } 
		.shp35 { fill: #edb39f } 
		.shp36 { fill: url(#grd30) } 
		.shp37 { fill: url(#grd31) } 
		.shp38 { fill: url(#grd32) } 
		.shp39 { fill: url(#grd33) } 
		.shp40 { fill: url(#grd34) } 
		.shp41 { fill: url(#grd35) } 
		.shp42 { fill: url(#grd36) } 
		.shp43 { fill: url(#grd37) } 
		.shp44 { fill: url(#grd38) } 
		.shp45 { fill: url(#grd39) } 
		.shp46 { fill: url(#grd40) } 
		.shp47 { fill: url(#grd41) } 
		.shp48 { fill: url(#grd42) } 
		.shp49 { fill: url(#grd43) } 
		.shp50 { fill: #bdd3e5 } 
		.shp51 { fill: url(#grd44) } 
		.shp52 { fill: url(#grd45) } 
		.shp53 { fill: #6ebaad } 
		.shp54 { fill: url(#grd46) } 
		.shp55 { fill: url(#grd47) } 
		.shp56 { fill: url(#grd48) } 
		.shp57 { fill: url(#grd49) } 
		.shp58 { fill: url(#grd50) } 
		.shp59 { fill: url(#grd51) } 
		.shp60 { fill: url(#grd52) } 
		.shp61 { fill: url(#grd53) } 
		.shp62 { fill: #214f95 } 
		.shp63 { fill: none;stroke: #ffffff;stroke-width: 1.71 } 
	</style>
	<g id="Layer 3">
		<g id="Layer 3">
		</g>
		<g id="&lt;Group&gt;">
			<path id="&lt;Path&gt;" class="shp0" d="M1336.54 991.15L138.51 991.15C134.01 983.1 130.27 974.87 127.18 966.42C89.93 864.62 152.59 772.66 198.89 686.3C223.9 639.66 240.09 588.62 246.34 536.07C252.91 480.88 243.37 427.69 242.45 372.69C241.09 292.02 265.47 205.61 349.63 177.29C354.07 175.79 358.59 174.49 363.13 173.35C371.69 170.84 380.42 168.93 389.29 167.61C424.77 162.33 462.65 166.39 498.39 176.04C506.19 178.08 513.96 180.49 521.7 183.22C544.91 191.43 567.8 202.53 590.18 215.28C711.47 284.41 823.93 230.4 950.67 224.23C1015.1 221.09 1085.5 230.53 1133.13 277.22C1178.77 321.94 1194.73 387.62 1199.04 449.38C1202.45 498.38 1203.89 548.24 1216.76 595.93C1232.08 652.7 1267.39 703.39 1294.26 756.19C1324.47 815.56 1331.34 881.99 1334.78 947.51C1335.57 962.07 1336.14 976.63 1336.54 991.15Z" />
			<g id="&lt;Group&gt;">
				<g id="&lt;Group&gt;">
					<path id="&lt;Path&gt;" class="shp1" d="M1037.43 455.77C1042.24 526.05 1001.29 546.52 1015.84 559.89C1016.59 560.58 1017.33 561.13 1018.11 561.56C1031.57 569.08 1048.23 537.52 1115.06 529.74C1157.35 524.79 1235.81 517.84 1239.59 486.55C1242.81 459.78 1180.12 476.4 1182.18 438.5C1183.67 410.96 1237.11 440.88 1243.82 415.74C1251.25 387.91 1200.03 394.67 1211.45 370.54C1222.88 346.46 1267.05 333.93 1252.32 315.12C1252.09 314.83 1251.85 314.56 1251.62 314.31C1236.76 297.09 1209.74 320.1 1192.77 336.04C1175.53 352.24 1171.38 358.28 1166.83 352.59C1162.28 346.9 1163.31 311.3 1141.24 316.13C1119.15 320.97 1130.15 379.83 1108.71 401.16C1087.24 422.52 1092.11 363.63 1066.6 379.06C1051.95 387.96 1035.01 420.88 1037.43 455.77Z" />
					<path id="&lt;Path&gt;" class="shp2" d="M1072.15 404.67L1085.65 476.07L1140.47 418.55L1140.38 418.55L1143.2 359.14L1145.12 413.67L1209.14 346.49L1173.59 387.64L1208.1 400.7L1170.24 391.51L1115.99 454.29L1187.96 485.27L1112.83 457.95L1044.22 536.77L1036.94 530.17L1081.65 480.27L1072.15 404.67Z" />
				</g>
				<g id="&lt;Group&gt;" style="mix-blend-mode: multiply">
					<path id="&lt;Path&gt;" class="shp3" d="M1106.6 287.07C1138.4 278.34 1150.7 269.35 1143.52 260.13C1136.34 250.9 1123.91 259.84 1106.24 286.96" />
					<path id="&lt;Path&gt;" class="shp4" d="M1083.4 299.46C1113.41 313.11 1128.61 314.09 1129 302.4C1129.4 290.71 1114.12 289.63 1083.18 299.14" />
					<path id="&lt;Path&gt;" class="shp5" d="M1061.91 321.7C1091.7 335.82 1106.89 337.04 1107.46 325.36C1108.04 313.68 1092.79 312.35 1061.7 321.38" />
					<path id="&lt;Path&gt;" class="shp6" d="M1043.21 353.38C1073.02 367.45 1088.21 368.65 1088.77 356.97C1089.33 345.29 1074.07 343.99 1043 353.06" />
					<path id="&lt;Path&gt;" class="shp7" d="M1030.45 384.35C1061.53 395.35 1076.76 395.02 1076.14 383.34C1075.53 371.66 1060.22 371.9 1030.21 384.05" />
					<path id="&lt;Path&gt;" class="shp8" d="M1021.87 414.23C1053.46 423.67 1068.65 422.58 1067.45 410.95C1066.25 399.31 1050.97 400.31 1021.61 413.94" />
					<path id="&lt;Path&gt;" class="shp9" d="M1014.71 445.65C1046.3 455.09 1061.5 454 1060.3 442.37C1059.1 430.73 1043.82 431.73 1014.46 445.36" />
					<path id="&lt;Path&gt;" class="shp10" d="M1082.89 299.42C1102.97 273.27 1107.36 258.68 1096.07 255.66C1084.77 252.63 1080.26 267.27 1082.53 299.55" />
					<path id="&lt;Path&gt;" class="shp11" d="M1061.99 322.64C1075.63 292.63 1076.6 277.43 1064.92 277.04C1053.23 276.65 1052.15 291.92 1061.67 322.86" />
					<path id="&lt;Path&gt;" class="shp12" d="M1043.03 354.08C1049.12 321.68 1046.45 306.68 1035.01 309.09C1023.56 311.5 1026.15 326.59 1042.77 354.37" />
					<path id="&lt;Path&gt;" class="shp13" d="M1030.15 385.29C1031.36 352.34 1026.48 337.91 1015.52 341.99C1004.57 346.07 1009.37 360.61 1029.93 385.61" />
					<path id="&lt;Path&gt;" class="shp14" d="M1022.41 414.29C1012.37 382.89 1002.88 370.96 993.96 378.52C985.04 386.08 994.49 398.13 1022.31 414.66" />
					<path id="&lt;Path&gt;" class="shp15" d="M1013.9 445.74C1003.85 414.34 994.37 402.42 985.45 409.97C976.52 417.53 985.98 429.58 1013.8 446.11" />
					<g id="&lt;Group&gt;">
						<path id="&lt;Path&gt;" class="shp16" d="M1010.87 469.25C1011.64 469.23 1012.32 468.65 1012.44 467.85C1025.2 381.18 1050.99 336.45 1070.39 314.2C1091.31 290.18 1109.45 286.51 1109.63 286.47C1110.51 286.3 1111.09 285.45 1110.93 284.57C1110.76 283.68 1109.9 283.1 1109.03 283.27C1108.26 283.41 1089.82 287.07 1068.19 311.76C1048.41 334.33 1022.13 379.64 1009.21 467.38C1009.08 468.27 1009.7 469.1 1010.59 469.23C1010.68 469.24 1010.77 469.25 1010.87 469.25Z" />
					</g>
				</g>
			</g>
			<g id="&lt;Group&gt;">
				<g id="&lt;Group&gt;">
					<path id="&lt;Path&gt;" class="shp17" d="M1237.12 955.06L227.69 955.06L309.58 924.91L1155.22 924.91L1237.12 955.06Z" />
					<path id="&lt;Path&gt;" class="shp18" d="M1165.04 410.37L1165.04 917.49C1165.04 924.14 1159.02 929.52 1151.56 929.52L313.21 929.52C305.79 929.52 299.78 924.14 299.78 917.49L299.78 410.37C299.78 403.72 305.79 398.33 313.21 398.33L1151.56 398.33C1159.02 398.33 1165.04 403.72 1165.04 410.37Z" />
					<path id="&lt;Path&gt;" class="shp17" d="M1139.2 900.75C1139.2 900.77 1139.18 900.78 1139.17 900.78L325.64 900.78C325.62 900.78 325.61 900.77 325.61 900.75L325.61 427.09L1139.2 427.09L1139.2 900.75Z" />
					<path id="&lt;Path&gt;" class="shp19" d="M567.41 865.96L365.08 865.96L365.08 469.73L567.41 469.73L567.41 865.96Z" />
					<path id="&lt;Path&gt;" class="shp20" d="M1085.27 865.96L599.52 865.96L599.52 469.73L1085.27 469.73L1085.27 865.96Z" />
					<path id="&lt;Path&gt;" class="shp18" d="M766.12 793.7L694.27 793.7C689.39 793.7 685.43 789.74 685.43 784.86C685.43 779.99 689.39 776.03 694.27 776.03L766.12 776.03C771 776.03 774.96 779.99 774.96 784.86C774.96 789.74 771 793.7 766.12 793.7Z" />
					<path id="&lt;Path&gt;" class="shp21" d="M1202.46 998.7L262.35 998.7C241.12 998.7 223.91 981.49 223.91 960.26C223.91 956.49 226.96 953.43 230.73 953.43L1234.07 953.43C1237.84 953.43 1240.9 956.49 1240.9 960.26C1240.9 981.49 1223.69 998.7 1202.46 998.7Z" />
				</g>
			</g>
			<g id="&lt;Group&gt;">
				<path id="&lt;Path&gt;" class="shp22" d="M776.64 584.5L688.16 584.5L515.94 327.66L948.87 327.66L776.64 584.5Z" />
				<path id="&lt;Path&gt;" class="shp23" d="M948.87 327.66C948.87 337.66 851.95 345.76 732.4 345.76C612.85 345.76 515.94 337.66 515.94 327.66C515.94 317.66 612.85 309.55 732.4 309.55C851.95 309.55 948.87 317.66 948.87 327.66Z" />
				<path id="&lt;Path&gt;" class="shp24" d="M776.67 584.48L764.36 782.58C748 783.89 716.82 783.89 700.46 782.58L688.15 584.48L776.67 584.48Z" />
			</g>
			<g id="&lt;Group&gt;">
				<path id="&lt;Path&gt;" class="shp25" d="M731.01 308.13L674.95 333.43C669.75 335.78 663.64 333.47 661.3 328.27L641.66 284.75C639.31 279.56 641.62 273.45 646.81 271.11L702.87 245.8C708.07 243.46 714.18 245.77 716.52 250.96L736.16 294.48C738.51 299.67 736.2 305.78 731.01 308.13Z" />
				<path id="&lt;Path&gt;" class="shp17" d="M701.13 282.68L672.72 279.84C671.57 279.72 670.73 280.89 671.2 281.94L682.95 307.97C683.43 309.02 684.86 309.16 685.53 308.23L702.2 285.04C702.87 284.1 702.28 282.79 701.13 282.68Z" />
			</g>
			<g id="&lt;Group&gt;">
				<path id="&lt;Path&gt;" class="shp26" d="M671.67 184.25L575.4 233.56L545.02 174.26L641.3 124.95L671.67 184.25Z" />
				<path id="&lt;Path&gt;" class="shp27" d="M602.33 167.98L574.8 233.38L672.06 184.05L602.33 167.98Z" />
				<path id="&lt;Path&gt;" class="shp28" d="M613.98 190.72L545.02 174.26L641.3 124.95L613.98 190.72Z" />
			</g>
			<g id="&lt;Group&gt;">
				<path id="&lt;Path&gt;" class="shp29" d="M866.48 182.87L828.85 159.58C822.13 155.42 820.05 146.61 824.21 139.89L847.51 102.25C851.66 95.54 860.48 93.46 867.2 97.62L904.83 120.91C911.55 125.07 913.62 133.89 909.47 140.6L886.17 178.24C882.01 184.96 873.2 187.03 866.48 182.87Z" />
				<text id="@
" style="transform: matrix(2.551,1.579,-1.579,2.551,839.348,138.885)" >
					<tspan x="0" y="0" class="txt30">@</tspan>
				</text>
			</g>
			<path id="&lt;Path&gt;" class="shp31" d="M863.19 229.01L809.81 225.57L796.74 265.04C795.35 262.8 793.2 261.02 790.51 260.12C784.4 258.1 777.8 261.41 775.78 267.52C773.76 273.63 777.07 280.22 783.18 282.25C789.29 284.27 795.88 280.96 797.91 274.85L797.95 274.86L810.71 236.33L855.35 239.21L846.82 264.99C845.43 262.78 843.29 261.02 840.61 260.13C834.5 258.11 827.91 261.42 825.89 267.53C823.87 273.64 827.18 280.23 833.29 282.26C839.4 284.28 845.99 280.97 848.01 274.86C848.06 274.71 848.09 274.57 848.13 274.42L848.16 274.43L863.19 229.01Z" />
			<g id="&lt;Group&gt;">
				<path id="&lt;Path&gt;" class="shp32" d="M763.4 61.03L791.94 129.59L721.75 158.86L688.39 78.74L747.1 54.3L763.4 61.03Z" />
				<g id="&lt;Group&gt;">
					<path id="&lt;Path&gt;" class="shp17" d="M759.02 85.63L713.73 104.48L712.79 102.22L758.07 83.37L759.02 85.63Z" />
					<path id="&lt;Path&gt;" class="shp17" d="M763.29 95.89L718.01 114.74L717.06 112.48L762.35 93.63L763.29 95.89Z" />
					<path id="&lt;Path&gt;" class="shp17" d="M767.56 106.16L722.28 125.01L721.34 122.74L766.62 103.9L767.56 106.16Z" />
				</g>
				<path id="&lt;Path&gt;" class="shp33" d="M751.89 65.82L763.4 61.02L747.1 54.31L751.89 65.82Z" />
			</g>
			<g id="&lt;Group&gt;">
				<g id="&lt;Group&gt;">
					<g id="&lt;Group&gt;">
						<path id="&lt;Compound Path&gt;" fill-rule="evenodd" class="shp17" d="M823.74 641.55L832.53 641.55C833.78 641.55 834.83 640.69 835.15 639.49C836.71 633.45 839.04 627.72 842.02 622.39C842.62 621.32 842.46 620.01 841.59 619.14L835.06 612.61C833.06 610.62 833.06 607.39 835.06 605.39L852.38 588.07C854.38 586.07 857.61 586.07 859.61 588.07L865.82 594.28C866.71 595.17 868.05 595.31 869.12 594.68C874.38 591.59 880.07 589.14 886.07 587.43C887.25 587.1 888.07 586.06 888.07 584.83L888.07 575.61C888.07 572.79 890.35 570.5 893.17 570.5L917.67 570.5C920.49 570.5 922.78 572.79 922.78 575.61L922.78 584.41C922.78 585.66 923.63 586.71 924.84 587.03C931.56 588.76 937.9 591.46 943.73 594.91L943.73 594.91L951.71 586.92C953.71 584.93 956.94 584.93 958.94 586.92L976.26 604.25C978.26 606.24 978.26 609.48 976.26 611.47L970.03 617.7C969.15 618.59 969 619.93 969.64 621.01C972.74 626.26 975.18 631.94 976.88 637.94C977.22 639.11 978.26 639.93 979.48 639.93L988.72 639.93C991.54 639.93 993.83 642.22 993.83 645.04L993.83 669.54C993.83 672.36 991.54 674.65 988.72 674.65L979.9 674.65C978.65 674.65 977.6 675.5 977.29 676.71C975.74 682.74 973.41 688.47 970.44 693.8C969.84 694.87 970 696.18 970.87 697.04L977.4 703.58C979.4 705.57 979.4 708.81 977.4 710.8L960.08 728.13C958.08 730.12 954.85 730.12 952.86 728.13L945.14 720.41C945.14 720.41 945.14 720.41 945.14 720.41C938.81 724.39 931.84 727.41 924.4 729.3C924.4 729.3 924.4 729.3 924.4 729.3L924.4 740.58C924.4 743.4 922.11 745.69 919.29 745.69L894.79 745.69C891.97 745.69 889.68 743.4 889.68 740.58L889.68 729.67C889.68 729.67 889.68 729.67 889.67 729.67C882.19 727.97 875.14 725.11 868.75 721.29C868.74 721.28 868.74 721.28 868.74 721.28L860.75 729.27C858.75 731.26 855.52 731.26 853.53 729.27L836.2 711.94C834.21 709.95 834.21 706.72 836.2 704.72L843.92 697C843.92 697 843.92 696.99 843.92 696.99C840.28 691.24 837.45 684.95 835.55 678.26C835.21 677.08 834.17 676.26 832.95 676.26L823.74 676.26C820.92 676.26 818.64 673.97 818.64 671.15L818.64 646.65C818.64 643.83 820.92 641.55 823.74 641.55ZM927.98 693.2C933.63 690.2 938.33 685.5 941.33 679.85C961.86 641.18 922.92 602.41 884.34 623.1C878.72 626.11 874.04 630.82 871.07 636.46C850.71 675.03 889.44 713.64 927.98 693.2Z" />
						<path id="&lt;Path&gt;" class="shp17" d="M906.23 632.33C920.46 632.33 932 643.87 932 658.1C932 672.33 920.46 683.86 906.23 683.86C892 683.86 880.46 672.33 880.46 658.1C880.46 643.87 892 632.33 906.23 632.33Z" />
					</g>
				</g>
			</g>
			<g id="&lt;Group&gt;">
				<g id="&lt;Group&gt;">
					<g id="&lt;Group&gt;">
						<path id="&lt;Compound Path&gt;" fill-rule="evenodd" class="shp17" d="M337.74 283.9L343.26 283.9C344.04 283.9 344.71 283.37 344.9 282.61C345.88 278.82 347.35 275.22 349.22 271.87C349.59 271.2 349.49 270.38 348.95 269.83L344.85 265.73C343.59 264.48 343.59 262.45 344.85 261.19L355.73 250.31C356.98 249.06 359.01 249.06 360.26 250.31L364.17 254.22C364.72 254.77 365.57 254.87 366.24 254.47C369.54 252.53 373.12 250.99 376.89 249.91C377.63 249.7 378.14 249.05 378.14 248.28L378.14 242.49C378.14 240.72 379.58 239.28 381.35 239.28L396.74 239.28C398.51 239.28 399.94 240.72 399.94 242.49L399.94 248.02C399.94 248.8 400.48 249.46 401.24 249.66C405.46 250.75 409.44 252.44 413.1 254.61L418.12 249.6C419.37 248.34 421.4 248.34 422.65 249.6L433.53 260.48C434.79 261.73 434.79 263.76 433.53 265.01L429.62 268.93C429.07 269.48 428.97 270.33 429.37 271C431.32 274.3 432.86 277.87 433.93 281.64C434.14 282.37 434.79 282.89 435.56 282.89L441.36 282.89C443.13 282.89 444.57 284.32 444.57 286.1L444.57 301.49C444.57 303.26 443.13 304.69 441.36 304.69L435.82 304.69C435.04 304.69 434.37 305.23 434.18 305.99C433.21 309.78 431.74 313.38 429.88 316.72C429.5 317.39 429.6 318.22 430.15 318.76L434.25 322.87C435.5 324.12 435.5 326.15 434.25 327.4L423.37 338.28C422.12 339.54 420.09 339.54 418.83 338.28L413.99 333.44C413.99 333.44 413.99 333.44 413.99 333.44C410.01 335.93 405.63 337.84 400.96 339.02C400.96 339.02 400.96 339.02 400.96 339.02L400.96 346.11C400.96 347.88 399.52 349.32 397.75 349.32L382.36 349.32C380.59 349.32 379.15 347.88 379.15 346.11L379.15 339.25C379.15 339.25 379.15 339.25 379.15 339.25C374.45 338.19 370.02 336.39 366.01 333.99C366 333.99 366 333.98 366 333.98L360.98 339C359.73 340.25 357.7 340.25 356.45 339L345.56 328.12C344.31 326.87 344.31 324.84 345.56 323.58L350.41 318.73C350.41 318.73 350.41 318.73 350.41 318.73C348.13 315.12 346.35 311.16 345.15 306.96C344.94 306.22 344.29 305.71 343.52 305.71L337.74 305.71C335.97 305.71 334.53 304.27 334.53 302.5L334.53 287.11C334.53 285.34 335.97 283.9 337.74 283.9ZM403.21 316.34C406.76 314.46 409.71 311.51 411.59 307.96C424.49 283.67 400.03 259.32 375.8 272.32C372.27 274.21 369.33 277.16 367.46 280.71C354.67 304.93 379 329.18 403.21 316.34Z" />
						<path id="&lt;Path&gt;" class="shp17" d="M389.55 278.11C398.49 278.11 405.73 285.36 405.73 294.3C405.73 303.24 398.49 310.48 389.55 310.48C380.61 310.48 373.36 303.24 373.36 294.3C373.36 285.36 380.61 278.11 389.55 278.11Z" />
					</g>
				</g>
			</g>
			<path id="&lt;Path&gt;" class="shp34" d="M545.13 651.58L387.96 651.58L387.96 494.42L545.13 494.42L545.13 651.58Z" />
			<path id="&lt;Path&gt;" class="shp17" d="M545.13 687.72L387.96 687.72L387.96 678.08L545.13 678.08L545.13 687.72Z" />
			<path id="&lt;Path&gt;" class="shp17" d="M545.13 724L387.96 724L387.96 714.36L545.13 714.36L545.13 724Z" />
			<path id="&lt;Path&gt;" class="shp17" d="M545.13 760.28L387.96 760.28L387.96 750.64L545.13 750.64L545.13 760.28Z" />
			<path id="&lt;Path&gt;" class="shp17" d="M545.13 796.56L387.96 796.56L387.96 786.92L545.13 786.92L545.13 796.56Z" />
			<path id="&lt;Path&gt;" class="shp17" d="M545.13 832.84L387.96 832.84L387.96 823.2L545.13 823.2L545.13 832.84Z" />
			<g id="&lt;Group&gt;">
				<g id="&lt;Group&gt;">
					<g id="&lt;Group&gt;">
						<path id="&lt;Path&gt;" class="shp35" d="M306.89 745.37C283.95 746.24 295.46 767.53 299.95 786.28C308.09 815.73 303.92 854.04 315.85 858.12C347.67 867.48 336.46 754.79 327.6 749.71C323.44 747.39 314.6 746.09 306.89 745.37Z" />
						<g id="&lt;Group&gt;">
							<path id="&lt;Path&gt;" class="shp35" d="M328.59 848.19C306.18 832.4 308.9 939.05 315.11 968.99C321.32 998.93 327.44 978.53 331.41 930.58C335.37 882.64 337.4 854.4 328.59 848.19Z" />
							<path id="&lt;Path&gt;" class="shp35" d="M311.7 966.01L311.08 977.21L329.41 977.65L328.88 966.81L311.7 966.01Z" />
							<path id="&lt;Path&gt;" class="shp36" d="M329.81 977.42C332.13 981.91 337.14 987.08 344.83 992.93C356.36 1001.7 359.38 999.81 359.64 1003.08C359.82 1005.26 343.01 1005.4 309.23 1003.51L310.81 976.62C323.47 976.69 329.81 976.95 329.81 977.42Z" />
						</g>
					</g>
					<g id="&lt;Group&gt;">
						<path id="&lt;Path&gt;" class="shp35" d="M282.38 745.92C259.86 741.44 260.12 765.72 260.12 784.99C261.2 815.53 254.23 850.92 264.89 857.67C293.66 874.17 301.82 758.33 294.39 751.33C290.89 748.11 289.72 748.42 282.38 745.92Z" />
						<g id="&lt;Group&gt;">
							<path id="&lt;Path&gt;" class="shp35" d="M276.8 848.19C254.4 832.4 257.12 939.05 263.33 968.99C269.53 998.93 275.66 978.53 279.62 930.58C283.59 882.64 285.62 854.4 276.8 848.19Z" />
							<path id="&lt;Path&gt;" class="shp35" d="M260.55 969.38L260.49 980.36L278.08 980.49L277.82 969.72L260.55 969.38Z" />
						</g>
						<path id="&lt;Path&gt;" class="shp37" d="M260.32 980.21C260.1 984.54 255.58 999.36 255.48 1003.12C283.43 1003.83 282.64 1009.46 278.13 980.29L260.32 980.21Z" />
					</g>
				</g>
				<path id="&lt;Path&gt;" class="shp38" d="M264.17 746.78C259.28 755.26 257.05 773.11 257.48 800.32C258.23 847.01 257.81 857.97 257.81 861.4C257.81 863.7 257.89 900.39 258.06 971.48C269.7 973.87 276.93 973.85 279.74 971.44C281.21 970.17 287.51 913.57 298.64 801.63C301.15 828.15 302.78 846.45 303.54 856.5C304.52 869.57 304.79 959.35 309.5 968.54C314.37 972.48 332.04 970.42 332.28 970.17C334.9 967.39 341.84 782.93 333.37 749.25L264.17 746.78Z" />
				<g id="&lt;Group&gt;">
					<path id="&lt;Path&gt;" class="shp35" d="M317.46 645.41C304.92 653.6 321.93 729.27 331.63 725.2C348.67 726.35 340.23 636.32 317.46 645.41Z" />
					<path id="&lt;Path&gt;" class="shp39" d="M302.99 633.62C338 637.66 337.34 668.37 340.4 690.23L315.9 693.8L302.99 633.62Z" />
				</g>
				<g id="&lt;Group&gt;">
					<g id="&lt;Group&gt;">
						<path id="&lt;Path&gt;" class="shp35" d="M332.45 726.83C347.12 724.19 380.97 663.62 377.6 660.09C374.95 653.4 303.52 727.05 332.45 726.83Z" />
					</g>
				</g>
				<path id="&lt;Path&gt;" class="shp40" d="M281.09 631.21C234.25 637.64 267.35 664.44 262.58 747.7C262.58 753.65 334.3 755.78 333.9 749.6C325.46 684.05 347.63 640.77 302.91 633.19" />
				<path id="&lt;Path&gt;" class="shp35" d="M302.95 627.11L302.95 639.5C302.07 650.89 284.1 638.77 282.06 634.12C280.65 631.12 282.68 629.58 282.68 623.24C282.68 619 282.68 616.66 282.68 616.19C261.04 582.54 296.44 568.41 310.27 592.3C310.51 611.89 315.78 630.31 302.95 627.11Z" />
				<path id="&lt;Path&gt;" class="shp41" d="M282.67 616.18C283.16 616.06 279.72 603.93 282.42 603.8C284.54 603.69 285.48 607.15 285.88 610.43C286.96 610.12 288.28 609.79 288.88 609.65C279.08 573.45 318.07 613.89 313.01 582.61C305.51 575.11 298.73 578.64 287.98 579.26C267.82 578.74 275.82 612.38 282.67 616.18Z" />
				<path id="&lt;Path&gt;" class="shp35" d="M258.09 645.59C244.22 650.08 239.4 728.98 249.54 727.63C265.26 733.06 281.8 642.86 258.09 645.59Z" />
				<g id="&lt;Group&gt;">
					<path id="&lt;Path&gt;" class="shp35" d="M247.61 726.98C249.31 728.98 252.07 729.77 254.66 729.33C274.9 725.85 336.34 676.58 331.1 673.73C328.49 670.4 234.8 711.95 247.61 726.98Z" />
				</g>
				<path id="&lt;Path&gt;" class="shp42" d="M281.53 631.2C264.77 632.07 254.76 635.21 251.5 640.61C248.24 646.02 245.21 660.6 242.39 684.37L269.72 687.14L272.37 671.28" />
				<path id="&lt;Path&gt;" class="shp43" d="M366.77 635.18L339.14 680.61L365.74 683.95L393.12 637.51L366.77 635.18Z" />
				<path id="&lt;Path&gt;" class="shp35" d="M380.59 661.24C380.65 659.92 379.71 658.76 378.4 658.54C374.36 657.87 366.08 657.11 364.52 661.79C362.43 668.04 370.21 674.65 374.13 671.84C376.92 669.83 380.45 664.59 380.59 661.24Z" />
				<path id="&lt;Path&gt;" class="shp35" d="M333.2 667.17C333.92 670.1 337.72 672.06 334.71 677.67C332.7 681.41 328.29 683.78 321.49 684.76L317.09 677.03C318.19 675.53 318.84 674.31 319.03 673.37C319.33 671.97 321.26 666.86 326.33 664.52C331.4 662.19 339.36 659.75 340.37 661.23C341.38 662.72 332.63 664.87 333.2 667.17Z" />
				<path id="&lt;Path&gt;" class="shp35" d="M317.09 677.03L261.32 702.43L261.45 716.39L319.71 681.26L317.09 677.03Z" />
			</g>
			<g id="&lt;Group&gt;">
				<g id="&lt;Group&gt;">
					<path id="&lt;Path&gt;" class="shp35" d="M912 894.38C880.32 882.95 852.64 878.97 850.17 885.49C847.7 892.01 871.37 906.56 903.05 917.99C934.72 929.42 962.4 933.4 964.88 926.88C967.35 920.36 943.67 905.81 912 894.38Z" />
					<g id="&lt;Group&gt;">
						<g id="&lt;Group&gt;">
							<g id="&lt;Group&gt;">
								<path id="&lt;Path&gt;" class="shp35" d="M859.16 885.02C846.35 867.42 815.14 952.26 811.2 975.31C807.25 998.35 820.04 977.35 837.19 944.4C854.34 911.44 864.21 891.94 859.16 885.02Z" />
							</g>
							<path id="&lt;Path&gt;" class="shp35" d="M824.56 972.59L819.51 982.61L809.26 980.2L812.32 969.64L824.56 972.59Z" />
						</g>
						<path id="&lt;Path&gt;" class="shp44" d="M809.24 980.27C806.97 982.54 803.05 984.84 797.48 987.16C789.13 990.63 787.6 989.01 786.93 990.94C786.47 992.23 796.1 994.85 815.79 998.79L819.61 982.43C812.78 980.71 809.32 979.99 809.24 980.27Z" />
					</g>
					<path id="&lt;Path&gt;" class="shp45" d="M939.62 900.75C897 880.47 867.97 873.08 852.52 878.59C839.53 883.22 825.14 913.34 809.36 968.95L825.66 974.56L860.87 908.05C886.76 920.46 911.8 930.2 935.97 937.26C960.15 944.33 969.71 936.59 964.66 914.05L939.62 900.75Z" />
				</g>
				<g id="&lt;Group&gt;">
					<path id="&lt;Path&gt;" class="shp35" d="M920.53 915.87C886.97 919.8 860.45 928.58 861.3 935.48C862.14 942.38 890.02 944.78 923.58 940.85C957.14 936.92 983.65 928.14 982.81 921.24C981.97 914.34 954.08 911.94 920.53 915.87Z" />
					<g id="&lt;Group&gt;">
						<path id="&lt;Path&gt;" class="shp35" d="M871.27 932.8C871.28 911.05 796.03 962.41 779.25 978.97C762.47 995.53 785.2 985.73 818.49 968.67C851.79 951.61 871.27 941.36 871.27 932.8Z" />
					</g>
					<path id="&lt;Path&gt;" class="shp35" d="M789.12 985.69L778.61 989.63L772.71 980.91L782.86 974.87L789.12 985.69Z" />
					<path id="&lt;Path&gt;" class="shp46" d="M772.65 980.95C769.44 981.08 765 980.11 759.34 978.03C750.84 974.92 750.82 972.69 749.02 973.65C747.81 974.29 753.11 982.74 764.91 999L778.8 989.57C774.95 983.67 772.9 980.79 772.65 980.95Z" />
				</g>
				<path id="&lt;Path&gt;" class="shp47" d="M983.08 913.4C992.82 938.19 982.23 951.57 951.3 953.55C904.9 956.51 876.27 953.88 873.63 953.88C871.88 953.88 843.6 964.94 788.8 987.08L780.71 973.17C823.58 941.88 852.14 924.81 866.4 921.96C880.66 919.11 902.48 916.58 931.88 914.39L983.08 913.4Z" />
				<g id="&lt;Group&gt;">
					<path id="&lt;Path&gt;" class="shp35" d="M933.49 803.45C935.96 805.32 936.91 808.6 936.31 811.63C933.61 825.22 922.68 879.59 912.56 878.17C900.67 876.5 912.88 827.8 917.54 816.74C921.42 807.51 927.51 798.92 933.49 803.45Z" />
					<path id="&lt;Path&gt;" class="shp35" d="M925.43 855.65L915.65 898.68L899.74 896.21L910.17 842.48L925.43 855.65Z" />
					<path id="&lt;Path&gt;" class="shp48" d="M909.64 843.01L928.99 855.3L940.62 813.17L927.24 802.29C922.82 805.12 919.23 810.55 916.49 818.58C913.74 826.61 911.46 834.76 909.64 843.01Z" />
					<path id="&lt;Path&gt;" class="shp35" d="M961.96 784.27L962.79 797.52L945.36 798.35L946.28 792.71L946.82 789.45C945.31 789.66 943.83 789.59 942.37 789.23C937.23 788.02 930.47 772.77 932.65 758.91C934.81 745 955.85 746.98 964.03 755.99C969.48 761.99 968.79 771.42 961.96 784.27Z" />
					<path id="&lt;Path&gt;" class="shp35" d="M989.6 821.44C986.26 840.9 976.93 864.74 977.17 880.22C977.41 895.71 983.3 913.42 981.6 914.13C979.89 914.91 922.84 916.11 920.15 913.66C917.43 911.2 928.97 890.78 929.72 875.53C930.47 860.31 919.78 853.78 917.91 835.33C916.1 816.91 924.81 804.35 929.21 801.29C932.18 799.24 937.34 798.18 944.7 798.09L965.39 797.1C975.39 796.85 982.76 799.11 987.49 803.87C991.11 807.5 991.09 812.78 989.6 821.44Z" />
					<path id="&lt;Path&gt;" class="shp35" d="M946.29 792.71L956.28 786.32C954.36 787.41 951.21 788.46 946.83 789.45L946.29 792.71Z" />
					<path id="&lt;Path&gt;" class="shp35" d="M979.56 804.02C977.16 805.99 976.33 809.3 977.04 812.31C980.24 825.79 993.18 879.72 1003.23 877.92C1015.06 875.81 1001.05 827.6 995.99 816.71C991.77 807.64 985.36 799.28 979.56 804.02Z" />
					<path id="&lt;Path&gt;" class="shp49" d="M925.14 857.38C927.64 861.99 928.85 867.95 928.77 875.26C928.67 886.2 917.83 910.67 919.07 914.23C920.02 917.01 957.34 916.36 974.64 915.46C979.57 915.21 982.89 914.93 983.24 914.72C984.84 913.73 979.93 891.85 978.57 880.79C977.95 875.74 979.19 868 980.68 861.1C982.25 854 984.24 846.86 984.77 845.05C984.81 844.91 984.84 844.78 984.86 844.71L984.86 844.68C984.87 844.64 984.88 844.61 984.89 844.59L986.32 848.57L1005.24 843.9C999.6 819.95 994.07 810.59 988.77 804.32C985.25 800.14 979.66 797.84 972.02 797.43C967.26 807.54 959.56 812.41 948.91 812.02C938.24 811.64 935.39 807.02 940.34 798.16C935.62 798.13 931.95 798.96 929.34 800.64C925.41 803.14 921.83 808.62 919.56 815.33C917.29 822.02 916.37 827.8 917.48 837.53C918.31 844.85 922.98 852.55 925.14 857.38Z" />
					<g id="&lt;Group&gt;">
						<path id="&lt;Path&gt;" class="shp35" d="M1007.5 871.31C1007.39 874.54 1005.29 877.38 1002.47 878.95C989.24 886.3 941.88 912.15 936.7 908.17C930.66 903.53 997.56 862.89 1001.2 864.65C1003.94 865.96 1007.65 866.89 1007.5 871.31Z" />
						<path id="&lt;Path&gt;" class="shp35" d="M934.68 904.55C935.52 903.82 937 902.65 938.66 901.65C941.61 899.83 945.15 898.57 946.91 901.42C948.63 904.2 948.29 906.11 946.83 908.97C945.41 911.82 939.8 916.83 938.48 915.49C937.13 914.15 940.81 909.92 940.22 909.81C940.18 909.81 940.11 909.84 940.01 909.88C938.64 910.67 931.26 917.51 930.05 916.07C928.81 914.52 930.84 907.79 934.68 904.55Z" />
					</g>
					<g id="&lt;Group&gt;">
						<path id="&lt;Path&gt;" class="shp50" d="M954.26 917.66L884.57 917.66L884.57 914.25L954.26 914.25L954.26 917.66Z" />
						<path id="&lt;Path&gt;" class="shp50" d="M866.36 917.66L931.21 917.66L912.91 873.45L848.06 873.45L866.36 917.66Z" />
						<path id="&lt;Path&gt;" class="shp51" d="M864.53 917.66L929.38 917.66L911.08 873.45L846.23 873.45L864.53 917.66Z" />
						<path id="&lt;Path&gt;" class="shp17" d="M882.61 897.75C883.78 900.67 886.3 902.41 888.24 901.63C890.17 900.85 890.79 897.86 889.62 894.94C888.45 892.02 885.93 890.28 883.99 891.06C882.06 891.83 881.44 894.83 882.61 897.75Z" />
					</g>
					<path id="&lt;Path&gt;" class="shp52" d="M936.41 747.88C936.98 745.42 939.18 743.88 941.25 742.71C948.08 738.82 956.76 739.47 963.4 743.43C971.26 748.11 974.65 756.96 976.89 765.39C977.01 765.81 977.11 766.25 977.21 766.69C978.35 771.62 978.92 777.37 982.28 781.24C983.4 782.53 984.72 783.63 985.99 784.77C987.27 785.9 988.51 787.07 989.51 788.53C994.34 795.55 996.2 804.6 995.83 813.02C995.65 817.18 994.83 821.51 993.47 825.43C992.24 828.96 990.4 832.33 986.14 832.07C978.88 831.62 969.79 827.83 963.31 824.64C957.04 821.56 951.36 815.23 952.05 807.8C952.89 798.78 960.99 792.24 961.97 783.25C962.68 776.85 960.43 768.42 953.83 766C950.55 764.79 947.72 763.52 945.19 762.18C941.81 760.4 938.98 758.26 936.69 755.77C933.84 756.49 932.29 759 932.05 763.32C930.52 756.42 931.97 751.27 936.41 747.88Z" />
				</g>
			</g>
			<g id="&lt;Group&gt;">
				<g id="&lt;Group&gt;">
					<path id="&lt;Path&gt;" class="shp35" d="M1320.35 814.61L1277.05 806.3L1281.9 729.22L1288.59 707.84L1313.37 702.6L1328.11 707.69C1336.48 710.59 1341.5 719.16 1339.92 727.88L1325.45 788.75L1320.35 814.61Z" />
					<path id="&lt;Path&gt;" class="shp35" d="M1320.61 692.69L1318.07 710.21C1315.39 711.32 1311.16 711.46 1305.39 710.62C1302.28 710.17 1300.48 709.16 1299.99 707.58L1300.93 701.11L1320.61 692.69Z" />
					<path id="&lt;Path&gt;" class="shp35" d="M1324.55 679.91C1324.41 680.54 1324.31 681.13 1324.18 681.7C1324.15 681.91 1324.14 682.11 1324.11 682.34C1323.03 692.8 1314.75 702.96 1304.48 703.02C1304.42 703.02 1304.35 703.03 1304.25 703.03C1304.17 703.01 1304.04 703.02 1303.9 703C1301.71 702.95 1293.84 702.46 1291.45 698.91C1288.65 694.74 1286.66 687.56 1287.33 682.95C1288 678.34 1289 677.36 1289.27 675.5C1289.48 674.05 1289.36 669.39 1289.63 667.41C1290.91 658.13 1298.49 649.83 1309.58 651.44C1326.22 653.85 1326.64 668.81 1324.55 679.91Z" />
					<path id="&lt;Path&gt;" class="shp53" d="" />
					<g id="&lt;Group&gt;">
						<path id="&lt;Path&gt;" class="shp35" d="M1251.71 769.26C1247.78 764.83 1271.41 739.58 1282.23 729.6C1293.05 719.63 1303.36 713.71 1308.17 719.12C1312.98 724.53 1305.88 734.07 1294.7 743.64C1283.51 753.21 1255.65 773.69 1251.71 769.26Z" />
						<g id="&lt;Group&gt;">
							<path id="&lt;Path&gt;" class="shp35" d="M1190.96 740.73C1192.88 735.84 1229.4 748.67 1239.57 752.67C1249.73 756.68 1260.16 761.65 1258 767.14C1255.84 772.62 1244.82 769.14 1234.66 765.14C1224.49 761.14 1189.03 745.62 1190.96 740.73Z" />
						</g>
						<path id="&lt;Path&gt;" class="shp35" d="M1273.15 736.32C1261.08 748.99 1254.91 755.36 1254.64 755.43C1254.37 755.49 1236.92 750.42 1202.29 740.2L1198.68 748.8C1227.65 765.88 1246.24 773.36 1254.46 771.25C1262.67 769.15 1273.88 762.49 1288.1 751.29L1273.15 736.32Z" />
						<g id="&lt;Group&gt;">
							<path id="&lt;Path&gt;" class="shp35" d="M1202 741.23L1202.29 740.2L1202.3 740.19L1202.29 740.17L1199.95 736.6C1199.34 735.69 1198.53 734.93 1197.57 734.41L1192.88 733.2C1192.01 733.69 1192.38 734.39 1193.99 735.29C1194.61 735.64 1195.17 736.64 1195.58 737.49L1193.04 736.48L1186.65 734.49C1185.01 733.97 1182.59 734.64 1181.89 736.55C1181.38 738.39 1181.95 740.01 1183.59 741.41L1186.77 744.62C1188.7 746 1189.94 747.42 1192.26 747.94L1198.68 748.8L1202 741.23Z" />
						</g>
						<path id="&lt;Path&gt;" class="shp54" d="M1272.26 735.85L1287.94 752.71C1311.01 734.13 1318.7 720.17 1311.02 710.82C1304.61 703.01 1291.68 711.35 1272.26 735.85Z" />
					</g>
					<g id="&lt;Group&gt;">
						<path id="&lt;Path&gt;" class="shp55" d="M1219.84 644.92L1253.24 728.19C1254.48 731.26 1252.98 734.76 1249.91 735.99L1166.62 769.41C1163.55 770.64 1160.05 769.15 1158.82 766.07L1125.41 682.8C1124.18 679.72 1125.67 676.23 1128.75 674.99L1212.03 641.58C1215.11 640.35 1218.6 641.84 1219.84 644.92Z" />
						<g id="&lt;Group&gt;">
							<path id="&lt;Path&gt;" class="shp17" d="M1236.18 697.85L1249.58 731.24L1163.58 765.74L1151.78 736.33L1161.84 704.7C1164.38 696.71 1173.59 693.04 1180.92 697.1L1205.74 710.82L1208.39 700.74C1210.67 692.05 1220.75 688.09 1228.34 692.89L1236.18 697.85Z" />
							<path id="&lt;Path&gt;" class="shp17" d="M1213.16 666.89C1214.46 670.15 1212.88 673.86 1209.62 675.16C1206.36 676.47 1202.66 674.89 1201.35 671.63C1200.05 668.37 1201.63 664.67 1204.89 663.36C1208.15 662.05 1211.85 663.64 1213.16 666.89Z" />
						</g>
					</g>
					<g id="&lt;Group&gt;">
						<path id="&lt;Path&gt;" class="shp35" d="M1311.11 821.65C1316.22 823.65 1319 831.82 1317.19 839.38C1315.75 845.39 1313.24 853.11 1308.88 862.11C1297.99 884.6 1289.44 914.73 1281.88 914.55C1274.32 914.37 1272.01 895.6 1279.66 871.26C1286.57 849.27 1293 820.39 1298.58 819.01C1301.41 818.31 1306.64 819.91 1311.11 821.65Z" />
						<g id="&lt;Group&gt;">
							<path id="&lt;Path&gt;" class="shp35" d="M1349.39 974.23C1349.41 974.49 1355.06 981.7 1366.32 995.88C1360.21 1002.14 1356.95 1005.03 1356.54 1004.57C1356.12 1004.1 1350.45 998.23 1339.53 986.95L1349.39 974.23Z" />
							<g id="&lt;Group&gt;">
								<path id="&lt;Path&gt;" class="shp35" d="M1272.54 906.83C1282.78 887.94 1354.72 977.43 1362.17 994.85C1369.63 1012.27 1325.85 968.42 1303.62 947.56C1281.38 926.69 1268.51 914.25 1272.54 906.83Z" />
							</g>
							<path id="&lt;Path&gt;" class="shp56" d="M1354.34 1002.25C1355.04 1004.63 1355.2 1008.42 1354.8 1013.62C1354.29 1020.5 1350.32 1022.65 1351.77 1023.67C1352.69 1024.32 1360.26 1017.85 1374.48 1004.27L1364.59 993.14C1357.75 999.22 1354.34 1002.26 1354.34 1002.25Z" />
						</g>
						<path id="&lt;Path&gt;" class="shp57" d="M1276.31 812.27C1268 860.92 1264.35 892.83 1265.38 907.98C1266.16 919.47 1292.56 949.29 1344.58 997.45L1358.64 983.73C1358.47 980.21 1343.75 959.07 1326.85 940.22C1315.25 927.28 1305.65 916.18 1298.07 906.92C1316.14 866.13 1324.96 836.91 1324.53 819.26" />
					</g>
					<path id="&lt;Path&gt;" class="shp35" d="M1285.55 814.65C1290.24 817.49 1291.58 826.02 1288.51 833.15C1286.06 838.83 1282.27 846 1276.44 854.14C1261.87 874.44 1248.3 902.66 1240.88 901.19C1233.47 899.72 1234.39 880.83 1246.09 858.16C1256.66 837.67 1267.92 810.31 1273.65 809.91C1276.56 809.7 1281.44 812.17 1285.55 814.65Z" />
					<g id="&lt;Group&gt;">
						<g id="&lt;Group&gt;">
							<path id="&lt;Path&gt;" class="shp35" d="M1238.22 887.87C1258.5 880.79 1253.6 995.37 1247.39 1013.27C1241.18 1031.18 1236.21 969.31 1233.8 938.91C1231.39 908.52 1230.23 890.65 1238.22 887.87Z" />
						</g>
						<path id="&lt;Path&gt;" class="shp35" d="M1251.88 990.98C1251.73 991.19 1251.51 1000.35 1251.22 1018.45C1242.52 1019.41 1238.16 1019.58 1238.14 1018.96C1238.12 1018.33 1237.46 1010.2 1236.19 994.55L1251.88 990.98Z" />
						<path id="&lt;Path&gt;" class="shp58" d="M1237.93 1016.21C1237.11 1018.91 1233.99 1022.11 1228.57 1025.8C1220.44 1031.33 1218.21 1030.28 1218.09 1032.24C1218.02 1033.54 1229.57 1033.21 1252.76 1031.25L1251.59 1015.24C1242.48 1015.6 1237.92 1015.93 1237.93 1016.21Z" />
					</g>
					<path id="&lt;Path&gt;" class="shp59" d="M1268.73 811.04C1245.67 850.42 1233.14 876.8 1231.13 890.19C1229.13 903.57 1230.74 941.5 1235.99 1003.97C1246.25 1005.76 1252.33 1004.98 1254.23 1001.63C1256.12 998.28 1257.35 963.65 1257.91 897.72C1289.44 866.68 1309.33 845.48 1317.59 834.13C1321.16 829.22 1323.47 824.27 1324.53 819.26L1268.73 811.04Z" />
					<path id="&lt;Path&gt;" class="shp60" d="M1287.33 816.15C1312.05 819.4 1324.45 820.44 1324.53 819.26C1325.28 807.43 1331.49 766.93 1334.41 757.54C1344.79 724.28 1340.89 712.51 1331.79 708.49C1318.15 702.43 1291.09 704.26 1287.08 707.02C1283.07 709.82 1279.48 715.14 1277.11 726.81C1276.63 729.18 1274.48 734.42 1274.48 741.59C1274.47 743.06 1274.55 744.6 1274.76 746.19C1274.76 746.19 1274.76 746.21 1274.75 746.23C1274.83 746.82 1274.91 747.4 1275.05 748C1275.27 749.15 1275.42 750.02 1275.52 750.37C1279.87 768.33 1271.36 802.55 1268.37 810.64C1268.15 811.23 1274.47 813.07 1287.33 816.15Z" />
					<g id="&lt;Group&gt;">
						<path id="&lt;Path&gt;" class="shp35" d="M1172.76 707.1L1175.07 710.98C1176.61 712.78 1177.46 714.47 1179.58 715.53L1184.17 717.35L1185.62 717.93L1190.67 711.38L1191.2 710.45L1191.21 710.45L1191.21 710.44L1191.2 710.4L1190.02 707.03L1189.8 706.4C1189.78 706.38 1189.78 706.35 1189.76 706.33C1189.38 705.32 1188.8 704.42 1188.02 703.7L1183.76 701.39C1182.8 701.65 1182.99 702.41 1184.34 703.68C1184.85 704.18 1185.16 705.29 1185.35 706.2L1184.99 705.94L1183.12 704.6L1177.41 701.13C1175.94 700.23 1173.43 700.29 1172.3 701.97C1171.35 703.63 1171.5 705.35 1172.76 707.1Z" />
					</g>
					<g id="&lt;Group&gt;">
						<path id="&lt;Path&gt;" class="shp35" d="M1232.11 750.63C1229.36 745.37 1258.41 726.6 1271.32 719.55C1284.24 712.5 1295.68 709.25 1299.03 715.66C1302.38 722.08 1293.18 729.61 1280.02 736.19C1266.85 742.76 1234.85 755.88 1232.11 750.63Z" />
						<g id="&lt;Group&gt;">
							<path id="&lt;Path&gt;" class="shp35" d="M1180.08 708.22C1183.13 703.94 1215.45 725.25 1224.34 731.59C1233.23 737.94 1242.15 745.29 1238.72 750.09C1235.3 754.89 1225.45 748.84 1216.56 742.5C1207.67 736.15 1177.02 712.5 1180.08 708.22Z" />
						</g>
						<path id="&lt;Path&gt;" class="shp35" d="M1260.89 723.86C1246.11 733.23 1238.58 737.92 1238.3 737.92C1238.02 737.92 1222.32 728.76 1191.2 710.46L1185.61 717.93C1209.58 741.52 1225.81 753.28 1234.28 753.23C1242.76 753.17 1255.26 749.43 1271.77 742.02L1260.89 723.86Z" />
						<path id="&lt;Path&gt;" class="shp61" d="M1260.14 723.19L1271.27 743.35C1298.15 730.92 1309 719.23 1303.81 708.3C1299.48 699.17 1284.92 704.13 1260.14 723.19Z" />
					</g>
					<path id="&lt;Path&gt;" class="shp62" d="M1299.06 715.79C1304.45 736.35 1313.58 762.28 1338.11 764.78C1349.15 765.91 1373.05 769.18 1377.58 754.99C1380.74 745.07 1378.52 733.4 1371.56 725.58C1362.33 715.23 1354.22 713.32 1343.25 705.18C1337.66 701.03 1333.72 695.59 1333.08 688.5C1331.84 674.85 1335.99 662.29 1323.19 652.5C1316.33 647.25 1306.82 645.67 1298.63 648.41C1293.36 650.17 1288.28 654.34 1287.92 659.88C1287.81 661.64 1288.18 663.4 1288.55 665.12C1292.17 681.93 1294.68 699.12 1299.06 715.79Z" />
					<path id="&lt;Path&gt;" class="shp35" d="M1185.18 706.23L1185.35 706.2L1184.99 705.94L1185.18 706.23Z" />
					<path id="&lt;Path&gt;" class="shp35" d="M1172.76 707.1L1175.07 710.98C1176.61 712.78 1177.46 714.47 1179.58 715.53L1184.17 717.35L1191.2 710.4L1190.02 707.03L1189.8 706.4C1189.78 706.38 1189.78 706.35 1189.76 706.33L1185.35 706.2L1184.99 705.94L1183.12 704.6L1177.41 701.13C1175.94 700.23 1173.43 700.29 1172.3 701.97C1171.35 703.63 1171.5 705.35 1172.76 707.1Z" />
				</g>
				<path id="&lt;Path&gt;" class="shp63" d="" />
			</g>
		</g>
	</g>
</svg>