<?xml version="1.0" encoding="utf-8"?>
<!-- Generator: Adobe Illustrator 27.0.0, SVG Export Plug-In . SVG Version: 6.00 Build 0)  -->
<svg version="1.1" id="Layer_1" xmlns="http://www.w3.org/2000/svg" xmlns:xlink="http://www.w3.org/1999/xlink" x="0px" y="0px"
	 viewBox="0 0 112 32" style="enable-background:new 0 0 112 32;" xml:space="preserve">
<style type="text/css">
	.st0{fill:#1D4CB3;}
</style>
<g>
	<path class="st0" d="M6,25.6V7.2h6.7c2.7,0,5.8,2,5.8,6s-3.1,6-5.8,6H9.5v6.4L6,25.6L6,25.6z M9.5,16h2.6c1.9,0,2.8-1.4,2.8-2.9
		s-0.9-2.8-2.8-2.8H9.5C9.5,10.3,9.5,16,9.5,16z"/>
	<path class="st0" d="M32.8,20.1h-9.8c0.5,1.7,2,2.6,3.6,2.6c1.3,0,2.2-0.3,3.4-1.2l2,2.2c-1.6,1.5-3.3,2.1-5.5,2.1
		c-4.1,0-7.1-3-7.1-7.1s3.1-7,7.1-7s6.5,3,6.5,6.6C33.1,18.9,33,19.7,32.8,20.1C32.8,20.1,32.8,20.1,32.8,20.1z M29.7,17.5
		c-0.2-1.5-1.2-2.8-3.2-2.8c-1.7,0-3.1,1.1-3.5,2.8H29.7z"/>
	<path class="st0" d="M35.3,25.6V12h3.1v2.4c0.7-1.5,1.8-2.7,4.8-2.7v3.6c-3.5,0-4.6,1.6-4.6,3.8v6.3L35.3,25.6L35.3,25.6z"/>
	<path class="st0" d="M47.4,6.1c1.1,0,2,0.9,2,2s-0.9,2-2,2s-2-0.9-2-2S46.3,6.1,47.4,6.1z M45.7,25.6V12h3.4v13.5H45.7z"/>
	<path class="st0" d="M52.2,25.6V7.2H62v3.3h-6.3v4.2h6.1v3.3h-6.1v7.7C55.7,25.6,52.2,25.6,52.2,25.6z"/>
	<path class="st0" d="M64.6,25.6V6.5H68v19.1L64.6,25.6L64.6,25.6z"/>
	<path class="st0" d="M77.4,11.7c4,0,7.1,3,7.1,7s-3.1,7.1-7.1,7.1s-7.1-3-7.1-7.1S73.4,11.7,77.4,11.7z M81.1,18.8
		c0-2-1.6-3.7-3.7-3.7s-3.7,1.7-3.7,3.7s1.5,3.7,3.7,3.7S81.1,20.9,81.1,18.8z"/>
	<path class="st0" d="M89.2,25.6L85,12h3.5l2.5,8.2l2.8-8.2h3.4l2.8,8.2l2.5-8.2h3.5l-4.1,13.5h-3.4l-2.9-8.9l-2.9,8.9H89.2
		L89.2,25.6z"/>
</g>
</svg>
